<svg id="Ebene_1" data-name="Ebene 1" xmlns="http://www.w3.org/2000/svg" xmlns:xlink="http://www.w3.org/1999/xlink" viewBox="0 0 1578.5 363.15"><defs><style>.cls-1{font-size:206.64px;fill:#373636;font-family:Montserrat-Medium, Montserrat;letter-spacing:-0.02em;}.cls-2{letter-spacing:-0.09em;}.cls-3{letter-spacing:-0.02em;}.cls-4{font-size:176.66px;font-family:Montserrat-Light, Montserrat;letter-spacing:-0.02em;}.cls-5{letter-spacing:-0.02em;}.cls-6{letter-spacing:-0.02em;}.cls-7{letter-spacing:-0.02em;}.cls-8{fill:url(#Unbenannter_Verlauf_17);}</style><linearGradient id="Unbenannter_Verlauf_17" x1="133.63" y1="331.2" x2="133.63" y2="29.78" gradientUnits="userSpaceOnUse"><stop offset="0" stop-color="#0065b0"/><stop offset="1" stop-color="#35b292"/></linearGradient></defs><title>3D-Startup-Campus-NRW</title><text class="cls-1" transform="translate(271.5 174.4)">3D S<tspan class="cls-2" x="449.43" y="0">T</tspan><tspan class="cls-3" x="552.95" y="0">ARTUP </tspan><tspan class="cls-4"><tspan x="0" y="162.57">C</tspan><tspan class="cls-5" x="120.48" y="162.57">AMPUS N</tspan><tspan class="cls-6" x="942.1" y="162.57">R</tspan><tspan class="cls-7" x="1065.4" y="162.57">W</tspan></tspan></text><path class="cls-8" d="M202.7,66.53l-.2-.48L178.36,45.18,138.79,30.65a16.84,16.84,0,0,0-4.93-.85v0h-.45v0a16.7,16.7,0,0,0-5,.88L88.9,45.18,64.77,66.05,48.23,104.31,51,145l.34.51c7.23,10.8,19,28.65,19.81,30.5,1.71,4.94,15.72,54,16.75,57.64l2.32,26a11.63,11.63,0,0,0,2.52,6.22l.18,13.61c0,1.59,1,2.05,2.59,2.43l.15,9.47c0,1.59,1,2.05,2.59,2.44l.16,9.45c0,1.81,1.4,2.16,3.18,2.62l3.87,1,1.67.41.63,6.43c.1,2,1.78,2.5,3,2.9l2.76.87c2.27.7,5.29,1.61,8.31,2.52l1.25.38c.56,3.26,3,10.57,10.32,10.85h.42c7.29-.28,9.77-7.59,10.32-10.85l1.26-.38c3-.91,6-1.82,8.3-2.52,1.14-.35,2.1-.65,2.76-.87,1.24-.4,2.92-.94,3-2.9l.63-6.43,1.67-.41,3.88-1c1.77-.46,3.18-.81,3.18-2.58l.15-9.49c1.54-.39,2.59-.85,2.59-2.41l.16-9.5c1.58-.38,2.59-.84,2.59-2.4l.18-13.64a11.79,11.79,0,0,0,2.52-6.23l2.31-26c1-3.64,15-52.7,16.73-57.58.82-1.91,12.6-19.76,19.83-30.56l.34-.51L219,104.31Zm-4,2.3,14.64,33.86-34.49-6.45L167.3,61.12l10.91-10Zm-36.92,158-10.5-3.4,4-30.36h14.5Zm4.84,4.45,7.16,2.32-9.26,6.52Zm-8.75,12h-9.12l1.88-14.91.28-2.16,10.23,3.32Zm9.3,20.89-6.56,1.59.37-3Zm-54.58,3-.7-5.74,8-1.82,10.78-.28v12.23Zm-6.49-37.68,10.23-3.32.28,2.16,1.89,14.91h-9.13Zm.53,36.23-6.55-1.59,6.19-1.41Zm-9.19-72.67H112l4,30.36-10.49,3.4Zm5.29,47.05-9.26-6.52,7.15-2.32ZM159.09,92.54C157.66,89,152.78,77,146.66,62.37h14.58l.61.56L172.42,95ZM173.4,98l7.92,24h-22l.26-26.64Zm-42.74,24H109.87l-.27-27,21.06-.61Zm0,2.74v39l-19.65.53-.72.17-.4-39.66ZM111.36,167l19.3-.52v23.82H113.52l-3-23.1Zm19.3,26v29.8l-12.79.29-4-30.09Zm0,32.55v17.64H120.43l-1.91-15.16-.29-2.21Zm0,20.38v10.6l-8.51.23L120.78,246Zm6.4,0h9.42l-1.37,10.85-8.05-.23Zm0-2.74V225.63l12,.26-.29,2.22-1.91,15.15Zm0-20.38V193.07h16.32l-4,30.09Zm0-32.55V166.52l18.85.51.89.2-3.06,23.1Zm19.32-26-19.32-.54v-39h20.31L157,164.46Zm-19.32-42.26V94.51l20.6.59-.26,27ZM157,92.35l-19.89-.59V62.37h7.53C150.4,76.21,155.14,87.87,157,92.35ZM137.06,59.62v-15c2.18,5.07,4.33,10.13,6.37,15Zm-6.4,0h-6.83c2.18-5.17,4.49-10.59,6.83-16Zm0,2.75V91.75l-20.34.58c1.82-4.49,6.55-16.13,12.36-30ZM108.17,92.54,94.84,95l10.57-32.1.62-.56H120.6C114.48,77,109.6,89,108.17,92.54Zm-.48,2.88.26,26.64h-22l7.92-24ZM80.31,120.81,54.37,105.39l33.05-6.18Zm27.67,4,.4,40.09-15.26,3.46-7.5-43.55Zm.62,42.85,3,22.68H96.9l-3.32-19.27ZM118.85,246l1.38,10.88h-.56l-8.09,1.84-1.52-12.55,0-.16v0Zm18.21,13.36,10.32.27,8,1.82-.7,5.74-17.61,4.28Zm10.8-2.43-.82,0,1.37-10.9h8.84l-1.55,12.72Zm7.81-66.6,3-22.67,15,3.4-3.32,19.27Zm3.21-25.44.4-40.09h22.36l-7.49,43.55Zm21-65.68,33,6.18L187,120.81Zm-3.84-50,.12.1-10.31,9.48L141.26,36.43ZM158.22,59.62H145.51c-2.56-6.07-5.3-12.51-8.07-18.9Zm-28.4-18.9c-2.77,6.39-5.51,12.83-8.06,18.9H109ZM91.26,49.19,126,36.43,101.45,58.76,91.14,49.29ZM68.55,68.83,89.05,51.1l10.91,10L88.4,96.24l-34.49,6.45ZM55.48,143.46,53.05,107.8l26.53,15.77,7.93,46.06-13.06,3C71.12,166.93,60.66,151.2,55.48,143.46ZM88,172.34l2.41,14L76.37,175Zm4,58.86c-2.08-7.29-11.4-39.91-15.13-52.32L91.1,190.46l.42,2.43L100,228.6Zm3.86,31.11a7.11,7.11,0,0,1-1-3.09l-2-22.78,11,7.72.69,2.88L106,260Zm37.81,63.13a4.73,4.73,0,0,1-3.93-3.11l3.61,1.07.05.18.27-.08.27.08.06-.18,3.6-1.07A4.71,4.71,0,0,1,133.63,325.44ZM154,311.35c-3.75,1.18-13.25,4-20.33,6.16-7.07-2.12-16.57-5-20.33-6.16l-.26-2.67,4.12,1c6.66,1.61,13.31,3.19,15.88,3.81l.06.27.53-.13.53.13.06-.27c2.57-.62,9.22-2.2,15.89-3.81l4.12-1Zm10.35-9.85c-4.78,1.21-19.67,4.79-30.68,7.42-11-2.63-25.9-6.21-30.68-7.42l-.11-6.63.34.08,12.64,2.84L133,301.6l.05.26.57-.12.57.12.06-.26,17.18-3.81L164.08,295l.34-.08Zm2.75-11.93c-5.1,1.2-21.44,4.83-33.43,7.48-12-2.65-28.32-6.28-33.42-7.48l-.11-6.68.8.17c3.7.79,8.64,1.82,13.58,2.84l18.5,3.82.05.25.6-.12.6.12.05-.25,18.5-3.82c4.94-1,9.88-2,13.58-2.84l.81-.17Zm2.74-11.92c-5.41,1.19-23.19,4.87-36.17,7.53-13-2.66-30.75-6.34-36.16-7.53l-.12-8.53,36,8.08,0-.16a3.73,3.73,0,0,0,.47,0h0l0,.12,36-8.08Zm2.69-18.44a7.14,7.14,0,0,1-1,3.1L161.32,260l1.57-13,.68-2.88,11-7.72Zm2.81-28-8-2.6,8.44-35.53.45-2.61,14.27-11.58C186.7,191.29,177.38,223.91,175.3,231.2Zm1.57-44.85,2.41-14L190.89,175Zm34.91-42.89c-5.18,7.74-15.64,23.47-19,29.13l-13.06-3,7.93-46.06,26.54-15.77Z"/></svg>